<svg xmlns="http://www.w3.org/2000/svg" viewBox="0 0 623.6 680"><defs><style>.cls-1{fill:#fff;}.cls-2{fill:#ed1d24;}</style></defs><title>Ресурс 2</title><g id="Слой_2" data-name="Слой 2"><g id="Слой_1-2" data-name="Слой 1"><path class="cls-1" d="M25.36,57V54.54h3V57Zm3,1.68V69.56h-3V58.68Z"/><path class="cls-2" d="M39.71,102.94v1.52h.07a3.41,3.41,0,0,1,1.47-1.38,4.21,4.21,0,0,1,1.85-.43,5.27,5.27,0,0,1,2,.32,3,3,0,0,1,1.21.91,3.5,3.5,0,0,1,.62,1.41,8.63,8.63,0,0,1,.18,1.84v6.69h-3v-6.15a3.79,3.79,0,0,0-.42-2,1.62,1.62,0,0,0-1.5-.67,2,2,0,0,0-1.76.73,4,4,0,0,0-.55,2.39v5.7h-3V102.94Z"/><path class="cls-1" d="M39.71,88.1v1.51h.07a3.39,3.39,0,0,1,1.47-1.37,4.22,4.22,0,0,1,1.85-.44,5.06,5.06,0,0,1,2,.33,3,3,0,0,1,1.21.91,3.52,3.52,0,0,1,.62,1.4,8.8,8.8,0,0,1,.18,1.85V99h-3V92.83a3.84,3.84,0,0,0-.42-2,1.64,1.64,0,0,0-1.5-.66,2,2,0,0,0-1.76.73,4,4,0,0,0-.55,2.38V99h-3V88.1Z"/><path class="cls-1" d="M66.5,248.56a5,5,0,0,1,1.13-1.81,5.11,5.11,0,0,1,1.77-1.15,6.09,6.09,0,0,1,2.31-.41,6.2,6.2,0,0,1,2.33.41,5.11,5.11,0,0,1,1.77,1.15A5.17,5.17,0,0,1,77,248.56a6.62,6.62,0,0,1,.4,2.37,6.47,6.47,0,0,1-.4,2.35,5,5,0,0,1-1.14,1.8A5,5,0,0,1,74,256.23a6.4,6.4,0,0,1-2.33.4,6.29,6.29,0,0,1-2.31-.4,5,5,0,0,1-1.77-1.15,4.89,4.89,0,0,1-1.13-1.8,6.47,6.47,0,0,1-.4-2.35A6.62,6.62,0,0,1,66.5,248.56Zm2.71,3.64a3.43,3.43,0,0,0,.43,1.12,2.17,2.17,0,0,0,.81.78,2.45,2.45,0,0,0,1.26.3,2.53,2.53,0,0,0,1.28-.3,2.27,2.27,0,0,0,.82-.78,3.68,3.68,0,0,0,.43-1.12,6.67,6.67,0,0,0,.12-1.27,7,7,0,0,0-.12-1.29,3.43,3.43,0,0,0-.43-1.11,2.58,2.58,0,0,0-.82-.79,2.53,2.53,0,0,0-1.28-.3,2.28,2.28,0,0,0-2.07,1.09,3.22,3.22,0,0,0-.43,1.11,7,7,0,0,0-.13,1.29A6.67,6.67,0,0,0,69.21,252.2Z"/><path class="cls-1" d="M24.16,256.34l-3.72-10.87h3.14l2.29,7.43h0l2.29-7.43h3l-3.68,10.87Z"/><path class="cls-1" d="M37.2,205.46a3.41,3.41,0,0,1,.53-1.74,3.48,3.48,0,0,1,1.17-1.12,5.26,5.26,0,0,1,1.61-.6,9.16,9.16,0,0,1,1.8-.18,11.69,11.69,0,0,1,1.66.12,5.4,5.4,0,0,1,1.54.45,3.05,3.05,0,0,1,1.13.94,2.59,2.59,0,0,1,.45,1.59v5.65a10.7,10.7,0,0,0,.08,1.41,2.6,2.6,0,0,0,.29,1h-3a3.23,3.23,0,0,1-.14-.51,3.33,3.33,0,0,1-.07-.54,4,4,0,0,1-1.69,1,6.58,6.58,0,0,1-2,.3,5.66,5.66,0,0,1-1.46-.19,3.49,3.49,0,0,1-1.17-.59,2.8,2.8,0,0,1-.79-1,3.41,3.41,0,0,1-.29-1.45,3.15,3.15,0,0,1,.33-1.53,2.81,2.81,0,0,1,.84-1,4,4,0,0,1,1.18-.53,12.65,12.65,0,0,1,1.33-.29c.45-.07.89-.12,1.33-.16a10.41,10.41,0,0,0,1.16-.19,2.2,2.2,0,0,0,.8-.37.84.84,0,0,0,.27-.71,1.48,1.48,0,0,0-.16-.76,1.14,1.14,0,0,0-.42-.45,1.83,1.83,0,0,0-.61-.21,5.78,5.78,0,0,0-.75-.05,2.24,2.24,0,0,0-1.38.38,1.65,1.65,0,0,0-.59,1.26Zm6.9,2.21a1.33,1.33,0,0,1-.47.26,3.89,3.89,0,0,1-.61.16l-.69.11c-.24,0-.47.06-.71.1a5.06,5.06,0,0,0-.67.17,2,2,0,0,0-.56.28,1.25,1.25,0,0,0-.39.46,1.41,1.41,0,0,0-.15.69,1.36,1.36,0,0,0,.15.67,1,1,0,0,0,.4.43,1.73,1.73,0,0,0,.59.23,3.85,3.85,0,0,0,.69.06,2.63,2.63,0,0,0,1.37-.3,1.91,1.91,0,0,0,.71-.7,2.23,2.23,0,0,0,.29-.83c0-.28.05-.51.05-.67Z"/><path class="cls-1" d="M87.42,221.25v2H85.23v5.38a1,1,0,0,0,1.26,1.27,3.91,3.91,0,0,0,.49,0,3.11,3.11,0,0,0,.44-.06v2.32a6.85,6.85,0,0,1-.84.08l-.91,0a9.09,9.09,0,0,1-1.31-.09,3.32,3.32,0,0,1-1.1-.37,1.92,1.92,0,0,1-.74-.78,2.71,2.71,0,0,1-.28-1.33v-6.41H80.43v-2h1.81V218h3v3.26Z"/><path class="cls-1" d="M82.43,243.79v-2.46h3v2.46Zm3,1.68v10.87h-3V245.47Z"/><path class="cls-1" d="M36.75,189.28a5,5,0,0,1,1.13-1.81,5.14,5.14,0,0,1,1.77-1.16A6.29,6.29,0,0,1,42,185.9a6.4,6.4,0,0,1,2.33.41,5.28,5.28,0,0,1,1.78,1.16,5,5,0,0,1,1.13,1.81,6.62,6.62,0,0,1,.4,2.37,6.47,6.47,0,0,1-.4,2.35,5.05,5.05,0,0,1-1.13,1.8A5.11,5.11,0,0,1,44.29,197a6.62,6.62,0,0,1-2.33.4,6.51,6.51,0,0,1-2.31-.4,5,5,0,0,1-1.77-1.15,5.05,5.05,0,0,1-1.13-1.8,6.47,6.47,0,0,1-.4-2.35A6.62,6.62,0,0,1,36.75,189.28Zm2.71,3.64a3.38,3.38,0,0,0,.43,1.11,2.27,2.27,0,0,0,.81.79,2.45,2.45,0,0,0,1.26.3,2.53,2.53,0,0,0,1.28-.3,2.3,2.3,0,0,0,.82-.79,3.62,3.62,0,0,0,.43-1.11,6.67,6.67,0,0,0,.12-1.27,6.88,6.88,0,0,0-.12-1.29,3.43,3.43,0,0,0-.43-1.11,2.48,2.48,0,0,0-.82-.79,2.53,2.53,0,0,0-1.28-.3,2.28,2.28,0,0,0-2.07,1.09,3.22,3.22,0,0,0-.43,1.11,6.88,6.88,0,0,0-.13,1.29A6.67,6.67,0,0,0,39.46,192.92Z"/><path class="cls-1" d="M82.29,303.66v1.52h.06a3.47,3.47,0,0,1,1.47-1.38,4.21,4.21,0,0,1,1.85-.43,5.23,5.23,0,0,1,2,.32,3,3,0,0,1,1.21.91,3.5,3.5,0,0,1,.62,1.41,8.63,8.63,0,0,1,.18,1.84v6.69h-3V308.4a3.81,3.81,0,0,0-.42-2,1.64,1.64,0,0,0-1.49-.67,2.07,2.07,0,0,0-1.77.73,4,4,0,0,0-.55,2.39v5.7h-3V303.66Z"/><path class="cls-1" d="M118.69,490.24v-.46h.55v.46Zm.55.31v2h-.55v-2Z"/><path class="cls-2" d="M118.55,478.94v.28h0a.65.65,0,0,1,.27-.25.72.72,0,0,1,.35-.08.93.93,0,0,1,.36.06.52.52,0,0,1,.22.16.61.61,0,0,1,.12.27,1.72,1.72,0,0,1,0,.34V481h-.55v-1.14a.7.7,0,0,0-.08-.37.29.29,0,0,0-.28-.13.36.36,0,0,0-.32.14.71.71,0,0,0-.1.44V481H118v-2Z"/><path class="cls-1" d="M118.55,495.27v.29h0a.61.61,0,0,1,.27-.26.85.85,0,0,1,.35-.08.93.93,0,0,1,.36.06.54.54,0,0,1,.22.17.57.57,0,0,1,.12.26,1.79,1.79,0,0,1,0,.34v1.24h-.55v-1.14a.73.73,0,0,0-.08-.37.3.3,0,0,0-.28-.12.36.36,0,0,0-.32.13.73.73,0,0,0-.1.44v1.06H118v-2Z"/><path class="cls-1" d="M118,547.18a.93.93,0,0,1,.21-.33.83.83,0,0,1,.33-.22,1.14,1.14,0,0,1,.43-.07,1.21,1.21,0,0,1,.43.07,1,1,0,0,1,.33.22.93.93,0,0,1,.21.33,1.42,1.42,0,0,1,0,.88.93.93,0,0,1-.21.33,1.15,1.15,0,0,1-.33.21,1.22,1.22,0,0,1-.43.08,1.14,1.14,0,0,1-.43-.08.9.9,0,0,1-.54-.54,1.25,1.25,0,0,1,0-.88Zm.5.68a.7.7,0,0,0,.08.2.4.4,0,0,0,.39.2.52.52,0,0,0,.23,0,.43.43,0,0,0,.15-.15.5.5,0,0,0,.08-.2,1,1,0,0,0,0-.48.44.44,0,0,0-.08-.2.43.43,0,0,0-.15-.15A.41.41,0,0,0,119,547a.43.43,0,0,0-.24.06.54.54,0,0,0-.15.15.6.6,0,0,0-.08.2,1.45,1.45,0,0,0,0,.48Z"/><path class="cls-1" d="M115.8,532.87l-.69-2h.58l.42,1.38h0l.42-1.38h.55l-.68,2Z"/><path class="cls-1" d="M118.05,521.31a.61.61,0,0,1,.1-.32.53.53,0,0,1,.21-.21,1,1,0,0,1,.3-.11,1.86,1.86,0,0,1,.33,0,1.55,1.55,0,0,1,.31,0,.89.89,0,0,1,.29.08.68.68,0,0,1,.21.17.56.56,0,0,1,.08.3v1a2.26,2.26,0,0,0,0,.26.54.54,0,0,0,.06.18h-.56l0-.09s0-.07,0-.1a.77.77,0,0,1-.31.19,1.14,1.14,0,0,1-.37,0,1.18,1.18,0,0,1-.27,0,.65.65,0,0,1-.22-.11.45.45,0,0,1-.14-.19.54.54,0,0,1-.05-.27.61.61,0,0,1,.06-.28.65.65,0,0,1,.15-.18.85.85,0,0,1,.22-.09,1.83,1.83,0,0,1,.25-.06l.24,0,.22,0a.52.52,0,0,0,.15-.07.17.17,0,0,0,0-.13.26.26,0,0,0,0-.14.24.24,0,0,0-.08-.09l-.11,0H119a.4.4,0,0,0-.26.07.3.3,0,0,0-.11.23Zm1.28.41-.09,0-.11,0-.13,0-.13,0a.28.28,0,0,0-.13,0l-.1,0a.18.18,0,0,0-.07.08.3.3,0,0,0,0,.26.18.18,0,0,0,.07.08l.11,0h.13a.44.44,0,0,0,.25-.06.33.33,0,0,0,.13-.13.47.47,0,0,0,.06-.15s0-.09,0-.13Z"/><path class="cls-1" d="M116.75,526.06v.37h-.41v1a.29.29,0,0,0,0,.19s.09,0,.19,0h.17v.43h-.33l-.24,0a.59.59,0,0,1-.2-.07.32.32,0,0,1-.14-.14.62.62,0,0,1,0-.25v-1.19h-.34v-.37h.34v-.6h.55v.6Z"/><path class="cls-1" d="M118.69,536v-.46h.55V536Zm.55.31v2h-.55v-2Z"/><path class="cls-1" d="M118,516.18a1,1,0,0,1,.21-.34.93.93,0,0,1,.33-.21,1.14,1.14,0,0,1,.43-.08,1.22,1.22,0,0,1,.43.08,1.15,1.15,0,0,1,.33.21,1,1,0,0,1,.21.34,1.23,1.23,0,0,1,.07.44,1.18,1.18,0,0,1-.07.43,1.08,1.08,0,0,1-.21.34,1.15,1.15,0,0,1-.33.21,1.21,1.21,0,0,1-.43.07,1.14,1.14,0,0,1-.43-.07.93.93,0,0,1-.33-.21,1.08,1.08,0,0,1-.21-.34,1.18,1.18,0,0,1-.08-.43A1.23,1.23,0,0,1,118,516.18Zm.5.67a.66.66,0,0,0,.08.21.4.4,0,0,0,.15.14.43.43,0,0,0,.24.06.41.41,0,0,0,.23-.06.34.34,0,0,0,.15-.14.49.49,0,0,0,.08-.21.85.85,0,0,0,0-.23,1,1,0,0,0,0-.24.49.49,0,0,0-.08-.21.34.34,0,0,0-.15-.14A.41.41,0,0,0,119,516a.43.43,0,0,0-.24.06.4.4,0,0,0-.15.14.66.66,0,0,0-.08.21,1.94,1.94,0,0,0,0,.24A1.64,1.64,0,0,0,118.5,516.85Z"/><path class="cls-1" d="M118.55,555.36v.28h0a.59.59,0,0,1,.27-.25.72.72,0,0,1,.35-.08.93.93,0,0,1,.36.06.52.52,0,0,1,.22.16.61.61,0,0,1,.12.27,1.72,1.72,0,0,1,0,.34v1.24h-.55v-1.14a.7.7,0,0,0-.08-.37.29.29,0,0,0-.28-.13.36.36,0,0,0-.32.14.71.71,0,0,0-.1.44v1.06H118v-2Z"/><path class="cls-2" d="M27,344.88v-2.46h3v2.46Zm3,1.69v10.87H27V346.57Z"/><path class="cls-2" d="M35.18,346.57v1.51h.06a3.44,3.44,0,0,1,1.48-1.38,4.35,4.35,0,0,1,1.85-.43,5,5,0,0,1,2,.33,2.9,2.9,0,0,1,1.21.9,3.49,3.49,0,0,1,.62,1.41,8.77,8.77,0,0,1,.18,1.84v6.69h-3V351.3a3.81,3.81,0,0,0-.42-2,1.65,1.65,0,0,0-1.5-.66,2.06,2.06,0,0,0-1.76.72,4,4,0,0,0-.55,2.39v5.7h-3V346.57Z"/><path class="cls-2" d="M47.65,346.57v1.51h.07a3.47,3.47,0,0,1,1.47-1.38,4.35,4.35,0,0,1,1.85-.43,5.06,5.06,0,0,1,2,.33,3,3,0,0,1,1.21.9,3.63,3.63,0,0,1,.62,1.41,8.77,8.77,0,0,1,.18,1.84v6.69H52V351.3a3.81,3.81,0,0,0-.42-2,1.64,1.64,0,0,0-1.5-.66,2.06,2.06,0,0,0-1.76.72,4,4,0,0,0-.55,2.39v5.7h-3V346.57Z"/><path class="cls-2" d="M57.35,349.65a5,5,0,0,1,1.14-1.81,5.19,5.19,0,0,1,1.76-1.16,6.77,6.77,0,0,1,4.64,0,5.18,5.18,0,0,1,1.78,1.16,5,5,0,0,1,1.13,1.81,6.6,6.6,0,0,1,.4,2.36,6.53,6.53,0,0,1-.4,2.36,4.9,4.9,0,0,1-2.91,2.95,7.1,7.1,0,0,1-4.64,0,5,5,0,0,1-1.76-1.15,5.08,5.08,0,0,1-1.14-1.8A6.53,6.53,0,0,1,57,352,6.6,6.6,0,0,1,57.35,349.65Zm2.71,3.64a3.62,3.62,0,0,0,.43,1.11,2.25,2.25,0,0,0,2.08,1.08,2.49,2.49,0,0,0,1.27-.29,2.3,2.3,0,0,0,.82-.79,3.38,3.38,0,0,0,.43-1.11,6.78,6.78,0,0,0,.13-1.28,6.86,6.86,0,0,0-.13-1.28,3.22,3.22,0,0,0-.43-1.11,2.3,2.3,0,0,0-.82-.79,2.39,2.39,0,0,0-1.27-.31,2.37,2.37,0,0,0-1.27.31,2.45,2.45,0,0,0-.81.79,3.43,3.43,0,0,0-.43,1.11,6.85,6.85,0,0,0-.12,1.28A6.77,6.77,0,0,0,60.06,353.29Z"/><path class="cls-1" d="M112.24,407.48l10.87-3.72v3.13l-7.42,2.29v0l7.42,2.3v3l-10.87-3.68Z"/><path class="cls-1" d="M119.77,415.6a3.41,3.41,0,0,1,1.74.52,3.51,3.51,0,0,1,1.12,1.18,5.16,5.16,0,0,1,.6,1.61,9.16,9.16,0,0,1,.18,1.8,11.69,11.69,0,0,1-.12,1.66,5.4,5.4,0,0,1-.45,1.54,3.05,3.05,0,0,1-.94,1.13,2.58,2.58,0,0,1-1.59.44h-5.66a10.4,10.4,0,0,0-1.4.09,2.44,2.44,0,0,0-1,.29v-3a4.23,4.23,0,0,1,.51-.13,5,5,0,0,1,.54-.08,3.82,3.82,0,0,1-1-1.68,6.65,6.65,0,0,1-.3-2,5.59,5.59,0,0,1,.19-1.45,3.36,3.36,0,0,1,.59-1.18,2.83,2.83,0,0,1,1-.79,3.57,3.57,0,0,1,1.45-.28,3.15,3.15,0,0,1,1.53.33,2.5,2.5,0,0,1,1,.84,3.65,3.65,0,0,1,.54,1.18,12.09,12.09,0,0,1,.28,1.33c.07.45.13.89.17,1.33a8.1,8.1,0,0,0,.19,1.15,2.05,2.05,0,0,0,.37.8.81.81,0,0,0,.7.28,1.64,1.64,0,0,0,.77-.16,1.19,1.19,0,0,0,.44-.42,1.53,1.53,0,0,0,.21-.61,4.38,4.38,0,0,0,.06-.75,2.29,2.29,0,0,0-.38-1.39,1.72,1.72,0,0,0-1.26-.59Zm-2.21,6.9a1.38,1.38,0,0,1-.26-.48,3.62,3.62,0,0,1-.16-.61c0-.21-.08-.44-.11-.68s-.06-.48-.1-.72-.1-.44-.17-.66a1.91,1.91,0,0,0-.29-.57,1.31,1.31,0,0,0-.45-.39,1.54,1.54,0,0,0-.69-.14,1.55,1.55,0,0,0-.68.14,1.27,1.27,0,0,0-.43.4,2.06,2.06,0,0,0-.22.59,4,4,0,0,0-.06.7,2.67,2.67,0,0,0,.29,1.36,2,2,0,0,0,.71.72,2.21,2.21,0,0,0,.83.28,5.08,5.08,0,0,0,.67.06Z"/><path class="cls-1" d="M123.11,433.77h-2v-2.19h-5.38a1.44,1.44,0,0,0-1,.26,1.42,1.42,0,0,0-.25,1,3.93,3.93,0,0,0,0,.49,3.11,3.11,0,0,0,.06.44h-2.31a6.56,6.56,0,0,1-.09-.84c0-.31,0-.61,0-.91a7.83,7.83,0,0,1,.1-1.31,3,3,0,0,1,.36-1.09,2,2,0,0,1,.78-.75,2.83,2.83,0,0,1,1.33-.27h6.41v-1.81h2v1.81h3.26v3h-3.26Z"/><path class="cls-1" d="M124.79,435.28h2.46v3h-2.46Zm-1.68,3H112.24v-3h10.87Z"/><path class="cls-1" d="M120,440.69a5,5,0,0,1,1.81,1.14,5.19,5.19,0,0,1,1.16,1.76,6.77,6.77,0,0,1,0,4.64,5.18,5.18,0,0,1-1.16,1.78,5,5,0,0,1-1.81,1.13,6.62,6.62,0,0,1-2.37.4,6.47,6.47,0,0,1-2.35-.4,4.9,4.9,0,0,1-3-2.91,6.93,6.93,0,0,1,0-4.64,5,5,0,0,1,1.15-1.76,5.08,5.08,0,0,1,1.8-1.14,6.47,6.47,0,0,1,2.35-.4A6.62,6.62,0,0,1,120,440.69Zm-3.64,2.71a3.52,3.52,0,0,0-1.11.43,2.35,2.35,0,0,0-.79.81,2.46,2.46,0,0,0-.3,1.27,2.49,2.49,0,0,0,.3,1.27,2.22,2.22,0,0,0,.79.82,3.3,3.3,0,0,0,1.11.43,6.67,6.67,0,0,0,1.27.13,6.88,6.88,0,0,0,1.29-.13,3.22,3.22,0,0,0,1.11-.43,2.39,2.39,0,0,0,.79-.82,2.49,2.49,0,0,0,.3-1.27,2.46,2.46,0,0,0-.3-1.27,2.55,2.55,0,0,0-.79-.81,3.43,3.43,0,0,0-1.11-.43,6.88,6.88,0,0,0-1.29-.12A6.67,6.67,0,0,0,116.39,443.4Z"/><path class="cls-1" d="M123.11,456.32H121.6v.06a3.39,3.39,0,0,1,1.37,1.47,4.27,4.27,0,0,1,.44,1.86,5,5,0,0,1-.33,2,2.9,2.9,0,0,1-.91,1.21,3.39,3.39,0,0,1-1.4.62,8.8,8.8,0,0,1-1.85.18h-6.68v-3h6.14a3.81,3.81,0,0,0,2-.42,1.63,1.63,0,0,0,.66-1.49,2.07,2.07,0,0,0-.73-1.77,4.06,4.06,0,0,0-2.38-.54h-5.7v-3h10.87Z"/><path class="cls-2" d="M72.72,164.5v59.67L50.8,267.89l-13.41-6.72,20.33-40.54V164.5a5.6,5.6,0,0,0-5.6-5.6H0v-137A15.09,15.09,0,0,1,15.09,6.86H29.92V0H44.63l.29,22.09H15V143.9H52.12A20.62,20.62,0,0,1,72.72,164.5Z"/><path class="cls-2" d="M232,406.48l-57.26-57.26a40.51,40.51,0,0,0-28.81-11.93H72.69a25.21,25.21,0,0,1-25.17-25.18V293.84l8.1-35.32,14.62,3.35-7.72,33.67v16.57a10.19,10.19,0,0,0,10.17,10.18h73.24a55.39,55.39,0,0,1,39.42,16.33l57.26,57.25Z"/><path class="cls-2" d="M572.62,792.62l-8-12.71,29.27-18.35,11.71-11.72a10.18,10.18,0,0,0,0-14.39l-51.78-51.78a55.39,55.39,0,0,1-16.33-39.43v-81h15v81a40.51,40.51,0,0,0,11.93,28.82l51.79,51.78a25.2,25.2,0,0,1,0,35.61l-12.92,12.92Z"/><rect class="cls-2" x="237.05" y="404.58" width="15" height="8.21" transform="translate(-206.47 255.68) rotate(-40.37)"/><rect class="cls-2" x="247.75" y="413.54" width="15" height="8.96" transform="translate(-233.55 386.91) rotate(-54.95)"/><rect class="cls-2" x="261.51" y="419.79" width="15" height="8.78" transform="translate(-225.87 510.13) rotate(-67.47)"/><rect class="cls-2" x="459.05" y="473.45" width="15" height="8.92" transform="translate(-61.02 887.47) rotate(-83.51)"/><rect class="cls-2" x="474.74" y="475.86" width="15" height="7.12" transform="translate(-14.91 943.36) rotate(-87.85)"/><rect class="cls-2" x="489.41" y="478.44" width="15" height="6.37" transform="translate(-141.1 749.62) rotate(-66.89)"/><rect class="cls-2" x="502.17" y="486.33" width="15" height="6.92" transform="translate(-190.48 587.01) rotate(-51.77)"/><rect class="cls-2" x="514.72" y="495.01" width="15" height="8.95" transform="translate(-200.35 509.18) rotate(-44.49)"/><rect class="cls-2" x="525.39" y="506.08" width="15" height="9.34" transform="translate(-190.98 366.32) rotate(-32.5)"/><rect class="cls-2" x="534.38" y="520.79" width="15" height="6.22" transform="translate(-144.62 212.75) rotate(-19.65)"/><rect class="cls-2" x="537.52" y="534.35" width="15" height="7.95"/><rect class="cls-2" x="537.52" y="548.99" width="15" height="10.46"/><path class="cls-1" d="M8.25,74.13v.35h-1v0a1.27,1.27,0,0,1,.47.26,1.66,1.66,0,0,1,.58.88,2,2,0,0,1,.07.54,2,2,0,0,1-.1.7,1.47,1.47,0,0,1-.27.48,1.25,1.25,0,0,1-.37.28,2.05,2.05,0,0,1-.41.16,3.05,3.05,0,0,1-.41,0H3.54v-.35h3l.44,0a1.17,1.17,0,0,0,.51-.16,1,1,0,0,0,.41-.4,1.34,1.34,0,0,0,.18-.75,1.61,1.61,0,0,0-.15-.71,1.43,1.43,0,0,0-.41-.53,1.77,1.77,0,0,0-.62-.34,2.79,2.79,0,0,0-.79-.11H3.54v-.35Z"/><path class="cls-1" d="M4.47,82v0a1.15,1.15,0,0,1-.39-.24,1.57,1.57,0,0,1-.34-.38,1.91,1.91,0,0,1-.23-.5,2.47,2.47,0,0,1-.08-.63,1.8,1.8,0,0,1,.33-1.16,1.17,1.17,0,0,1,1-.41,1.23,1.23,0,0,1,.67.16,1.3,1.3,0,0,1,.42.42,1.71,1.71,0,0,1,.21.56c0,.2.07.4.09.59l0,.54a3.21,3.21,0,0,0,.09.59.73.73,0,0,0,.16.33.49.49,0,0,0,.27.13,2.37,2.37,0,0,0,.41,0A.86.86,0,0,0,7.49,82a.8.8,0,0,0,.29-.23A1.13,1.13,0,0,0,8,81.31a2.47,2.47,0,0,0,.07-.6,1.63,1.63,0,0,0-.31-1,1.27,1.27,0,0,0-1-.43v-.35a1.56,1.56,0,0,1,1.17.5,2,2,0,0,1,.39,1.32A1.9,1.9,0,0,1,8,82a1.12,1.12,0,0,1-.88.39H4.21L4,82.4a.26.26,0,0,0-.14.09.3.3,0,0,0-.05.18,1.58,1.58,0,0,0,0,.26H3.58a.92.92,0,0,1,0-.29.75.75,0,0,1,.06-.33.4.4,0,0,1,.14-.19A.63.63,0,0,1,4,82l.27,0Zm1.75,0A.57.57,0,0,1,6,81.62,4.43,4.43,0,0,1,5.92,81l0-.59c0-.17,0-.34-.08-.51a1.41,1.41,0,0,0-.17-.46,1,1,0,0,0-.32-.34A1.08,1.08,0,0,0,4.76,79a.92.92,0,0,0-.78.33,1.53,1.53,0,0,0-.25.91,1.76,1.76,0,0,0,.22,1,1.68,1.68,0,0,0,.49.53A1.54,1.54,0,0,0,5,82l.36.05Z"/><path class="cls-1" d="M3.54,85.26v-.43l4.71-1.89v.4L3.94,85.05h0l4.31,1.6V87Z"/><path class="cls-1" d="M9.14,87.62h.94V88H9.14Zm-5.6,0H8.25V88H3.54Z"/><path class="cls-1" d="M8.25,93H3.79A3.25,3.25,0,0,1,3,92.87a1.86,1.86,0,0,1-.65-.31,1.65,1.65,0,0,1-.46-.62,2.6,2.6,0,0,1-.17-1,3.13,3.13,0,0,1,.08-.7,1.79,1.79,0,0,1,.25-.58,1.25,1.25,0,0,1,.45-.4,1.71,1.71,0,0,1,.69-.17v.35a1.22,1.22,0,0,0-.53.16,1,1,0,0,0-.36.33,1.33,1.33,0,0,0-.21.47,2.38,2.38,0,0,0-.06.55,2.14,2.14,0,0,0,.14.81,1.59,1.59,0,0,0,.38.52,1.77,1.77,0,0,0,.53.27,2.48,2.48,0,0,0,.61.07H4.79v0a1.79,1.79,0,0,1-1.08-1.7,2.06,2.06,0,0,1,.18-.9,1.76,1.76,0,0,1,.5-.64A2.14,2.14,0,0,1,5.13,89,3.28,3.28,0,0,1,6,88.87a2.9,2.9,0,0,1,.89.13,2.27,2.27,0,0,1,.74.39,1.76,1.76,0,0,1,.5.64,1.86,1.86,0,0,1,.19.87,1.94,1.94,0,0,1-.28,1,1.59,1.59,0,0,1-.81.68h1ZM8.06,90.9a1.49,1.49,0,0,0-.18-.75,1.5,1.5,0,0,0-.45-.52,2.06,2.06,0,0,0-.65-.31A2.65,2.65,0,0,0,6,89.21a2.88,2.88,0,0,0-.78.11,2,2,0,0,0-.65.32,1.48,1.48,0,0,0-.43.53A1.57,1.57,0,0,0,4,90.9a1.6,1.6,0,0,0,.16.75,1.57,1.57,0,0,0,.45.54,2.08,2.08,0,0,0,.65.32,2.68,2.68,0,0,0,.76.1,2.68,2.68,0,0,0,.76-.1,2,2,0,0,0,.65-.32,1.54,1.54,0,0,0,.44-.54A1.6,1.6,0,0,0,8.06,90.9Z"/><path class="cls-1" d="M4.47,97.12h0a1.58,1.58,0,0,1-.39-.24,1.78,1.78,0,0,1-.34-.38A2,2,0,0,1,3.51,96a2.47,2.47,0,0,1-.08-.63,1.82,1.82,0,0,1,.33-1.16,1.2,1.2,0,0,1,1-.41,1.23,1.23,0,0,1,.67.16,1.3,1.3,0,0,1,.42.42,1.71,1.71,0,0,1,.21.56c0,.2.07.4.09.59l0,.54a3.21,3.21,0,0,0,.09.59.68.68,0,0,0,.16.33.5.5,0,0,0,.27.14l.41,0a.86.86,0,0,0,.36-.07.8.8,0,0,0,.29-.23,1.08,1.08,0,0,0,.21-.4,2.63,2.63,0,0,0,.07-.61,1.63,1.63,0,0,0-.31-1,1.27,1.27,0,0,0-1-.43V94A1.55,1.55,0,0,1,8,94.52a2,2,0,0,1,.39,1.32A1.9,1.9,0,0,1,8,97.08a1.12,1.12,0,0,1-.88.39H4.21a.48.48,0,0,0-.18,0,.34.34,0,0,0-.14.09.3.3,0,0,0-.05.18,1.58,1.58,0,0,0,0,.26H3.58a.9.9,0,0,1,0-.28.8.8,0,0,1,.06-.34.45.45,0,0,1,.14-.19A.48.48,0,0,1,4,97.15a1.12,1.12,0,0,1,.27,0Zm1.75,0A.57.57,0,0,1,6,96.73a4.18,4.18,0,0,1-.09-.58l0-.58c0-.18,0-.35-.08-.52a1.41,1.41,0,0,0-.17-.46,1,1,0,0,0-.32-.34,1.08,1.08,0,0,0-.54-.12.92.92,0,0,0-.78.33,1.5,1.5,0,0,0-.25.9,1.74,1.74,0,0,0,.22,1,1.68,1.68,0,0,0,.49.53,1.54,1.54,0,0,0,.54.23,1.78,1.78,0,0,0,.36.05Z"/><path class="cls-1" d="M8,100.31v-1H4.66a1.36,1.36,0,0,0-.45.06.5.5,0,0,0-.25.2.64.64,0,0,0-.11.32c0,.12,0,.27,0,.43h-.3a4.34,4.34,0,0,1,0-.51,1.25,1.25,0,0,1,.14-.45A.82.82,0,0,1,4,99a1.4,1.4,0,0,1,.63-.09H8v-.87h.3v.87H9.72v.35H8.25v1Z"/><path class="cls-1" d="M9.14,101h.94v.35H9.14Zm-5.6,0H8.25v.35H3.54Z"/><path class="cls-1" d="M5.9,102.27a2.89,2.89,0,0,1,.94.15,2.38,2.38,0,0,1,.79.41,2.08,2.08,0,0,1,.53.68A2.1,2.1,0,0,1,7.63,106a2.6,2.6,0,0,1-.79.42,3.19,3.19,0,0,1-.94.14,3.32,3.32,0,0,1-1-.14,2.43,2.43,0,0,1-.78-.42,2,2,0,0,1-.53-.68,2.24,2.24,0,0,1,0-1.85,2.08,2.08,0,0,1,.53-.68,2.23,2.23,0,0,1,.78-.41A3,3,0,0,1,5.9,102.27Zm0,.35a2.76,2.76,0,0,0-.82.12,2.24,2.24,0,0,0-.69.35,1.66,1.66,0,0,0-.48.57,1.61,1.61,0,0,0-.18.78,1.66,1.66,0,0,0,.18.78,1.73,1.73,0,0,0,.48.56,2,2,0,0,0,.69.35,2.83,2.83,0,0,0,1.63,0,2,2,0,0,0,.69-.35,1.73,1.73,0,0,0,.48-.56,1.66,1.66,0,0,0,.18-.78,1.61,1.61,0,0,0-.18-.78,1.66,1.66,0,0,0-.48-.57,2.24,2.24,0,0,0-.69-.35A2.74,2.74,0,0,0,5.9,102.62Z"/><path class="cls-1" d="M8.25,107.41v.35h-1v0a1.43,1.43,0,0,1,.47.26,2,2,0,0,1,.36.4,1.67,1.67,0,0,1,.22.49,1.9,1.9,0,0,1,.07.54,2.07,2.07,0,0,1-.1.7,1.42,1.42,0,0,1-.27.47,1.28,1.28,0,0,1-.37.29,1.56,1.56,0,0,1-.41.15l-.41.06H3.54v-.34h3l.44,0a1.32,1.32,0,0,0,.51-.16,1.12,1.12,0,0,0,.41-.4,1.36,1.36,0,0,0,.18-.75,1.66,1.66,0,0,0-.15-.72,1.61,1.61,0,0,0-.41-.53,1.75,1.75,0,0,0-.62-.33,2.47,2.47,0,0,0-.79-.12H3.54v-.35Z"/></g></g></svg>